<?xml version="1.0" encoding="us-ascii" standalone="no"?>
<svg height="100" version="1.1" viewBox="0 0 26 26" width="100" xmlns="http://www.w3.org/2000/svg" xmlns:svg="http://www.w3.org/2000/svg">
  <path d="M 9.92175 3.30725 C 6.2573209 3.30725 3.30725 6.2573206 3.30725 9.92175 L 3.30725 16.53625 C 3.30725 20.200679 6.2573209 23.15075 9.92175 23.15075 L 16.53625 23.15075 C 20.200679 23.15075 23.15075 20.200679 23.15075 16.53625 L 23.15075 9.92175 C 23.15075 6.2573206 20.200679 3.30725 16.53625 3.30725 L 9.92175 3.30725 z M 10.362544 4.63015 L 16.095456 4.63015 C 19.271294 4.63015 21.82785 7.1867056 21.82785 10.362544 L 21.82785 16.095456 C 21.82785 19.271294 19.271294 21.82785 16.095456 21.82785 L 10.362544 21.82785 C 7.1867058 21.82785 4.63015 19.271294 4.63015 16.095456 L 4.63015 10.362544 C 4.63015 7.1867056 7.1867058 4.63015 10.362544 4.63015 z" style="fill: #FFFFFF"/>
</svg>
